<svg width="24" height="24" viewBox="0 0 24 24" fill="none" xmlns="http://www.w3.org/2000/svg">
<path d="M22 12.4989C21.9998 10.6835 21.4794 8.90607 20.5004 7.37719C19.5215 5.84831 18.1249 4.63194 16.4761 3.87211C14.8273 3.11227 12.9953 2.84079 11.197 3.08978C9.39875 3.33877 7.70945 4.09783 6.32915 5.27708C4.94885 6.45633 3.93534 8.00639 3.40863 9.74375C2.88191 11.4811 2.86403 13.333 3.35711 15.0802C3.85019 16.8274 4.83359 18.3968 6.19087 19.6024C7.54814 20.8081 9.22247 21.5997 11.0156 21.8833V15.2452H8.60342V12.4989H11.0156V10.4057C11.0156 8.02519 12.4343 6.70944 14.6035 6.70944C15.3161 6.71966 16.027 6.78157 16.7307 6.89469V9.23327H15.5321C15.1713 9.18538 14.8062 9.28273 14.5172 9.50393C14.2281 9.72513 14.0388 10.0521 13.9907 10.4129C13.9771 10.5139 13.975 10.6161 13.9844 10.7177V12.4989H16.6167L16.1955 15.2452H13.9788V21.8833C16.2145 21.531 18.251 20.3921 19.7215 18.6716C21.1921 16.9511 22.0001 14.7622 22 12.4989Z" fill="#00FFC6"/>
</svg>
