<svg width="24" height="24" viewBox="0 0 24 24" fill="none" xmlns="http://www.w3.org/2000/svg">
<path fill-rule="evenodd" clip-rule="evenodd" d="M8.28999 3.4914C9.24999 3.44141 9.55999 3.44141 12 3.44141C14.44 3.44141 14.75 3.44141 15.72 3.4914C16.4651 3.50749 17.2022 3.64947 17.9 3.91134C19.1042 4.3878 20.0518 5.34977 20.51 6.56096C20.7719 7.25865 20.9139 7.99561 20.93 8.74065C20.98 9.70051 20.98 10.0105 20.98 12.4501C20.98 13.9375 20.9614 14.6185 20.9469 15.15C20.9376 15.4903 20.93 15.7693 20.93 16.1596C20.9139 16.9046 20.7719 17.6416 20.51 18.3393C20.0426 19.5469 19.0878 20.5016 17.88 20.9689C17.1822 21.2308 16.4451 21.3728 15.7 21.3889C14.74 21.4388 14.43 21.4388 11.9903 21.4388C10.5026 21.4388 9.82135 21.4203 9.28974 21.4058C8.94941 21.3965 8.67031 21.3889 8.27999 21.3889C7.53485 21.3728 6.79779 21.2308 6.1 20.9689C4.89018 20.4994 3.93501 19.5407 3.47 18.3293C3.2081 17.6316 3.06609 16.8946 3.05 16.1496C3 15.1897 3 14.8798 3 12.4401C3 10.0005 3 9.69052 3.05 8.72065C3.06609 7.97561 3.2081 7.23866 3.47 6.54096C3.93961 5.33132 4.8984 4.37629 6.11 3.91134C6.80779 3.64947 7.54485 3.50749 8.28999 3.4914ZM15.6406 5.11249C14.6906 5.0625 14.4006 5.0625 12.0006 5.0625V5.0825C10.5201 5.0825 9.84346 5.10136 9.32148 5.11592C8.99376 5.12505 8.72702 5.13249 8.36062 5.13249C7.79035 5.13982 7.22553 5.24465 6.69062 5.44245C5.91752 5.74733 5.30556 6.35921 5.00062 7.1322C4.8028 7.66704 4.69796 8.23177 4.69062 8.80196C4.64062 9.75183 4.64062 10.0318 4.64062 12.4414C4.64062 13.9217 4.65949 14.5983 4.67405 15.1202C4.68319 15.4479 4.69062 15.7146 4.69062 16.0809C4.69796 16.6511 4.8028 17.2158 5.00062 17.7507C5.30556 18.5237 5.91752 19.1355 6.69062 19.4404C7.22553 19.6382 7.79035 19.7431 8.36062 19.7504C9.31062 19.8004 9.59061 19.8004 12.0006 19.8004C13.4811 19.8004 14.1578 19.7815 14.6797 19.767C15.0075 19.7578 15.2742 19.7504 15.6406 19.7504C16.2109 19.7431 16.7757 19.6382 17.3106 19.4404C18.0837 19.1355 18.6957 18.5237 19.0006 17.7507C19.1984 17.2158 19.3033 16.6511 19.3106 16.0809C19.3606 15.1311 19.3606 14.8511 19.3606 12.4414C19.3606 10.9612 19.3417 10.2846 19.3272 9.76269C19.318 9.43502 19.3106 9.16832 19.3106 8.80196C19.3033 8.23177 19.1984 7.66704 19.0006 7.1322C18.6957 6.35921 18.0837 5.74733 17.3106 5.44245C16.7769 5.23783 16.212 5.12622 15.6406 5.11249Z" fill="#00FFC6"/>
<path fill-rule="evenodd" clip-rule="evenodd" d="M7.37891 12.4397C7.37891 9.88846 9.44735 7.82031 11.9989 7.82031C13.2242 7.82031 14.3993 8.30699 15.2657 9.17329C16.1321 10.0396 16.6189 11.2145 16.6189 12.4397C16.6189 14.9908 14.5505 17.059 11.9989 17.059C9.44735 17.059 7.37891 14.9908 7.37891 12.4397ZM9 12.4404C9 14.0973 10.3431 15.4404 12 15.4404C12.7956 15.4404 13.5587 15.1244 14.1213 14.5617C14.6839 13.9991 15 13.2361 15 12.4404C15 10.7836 13.6569 9.44043 12 9.44043C10.3431 9.44043 9 10.7836 9 12.4404Z" fill="#00FFC6"/>
<path fill-rule="evenodd" clip-rule="evenodd" d="M16.7988 8.7225C17.3952 8.7225 17.8788 8.23897 17.8788 7.6425C17.8788 7.04603 17.3952 6.5625 16.7988 6.5625C16.2023 6.5625 15.7188 7.04603 15.7188 7.6425C15.7188 8.23897 16.2023 8.7225 16.7988 8.7225Z" fill="#00FFC6"/>
</svg>
