<svg width="24" height="24" viewBox="0 0 24 24" fill="none" xmlns="http://www.w3.org/2000/svg">
<path d="M19.2758 3.5H3.76328C3.33828 3.5 3.01953 3.81875 3.01953 4.24375V19.8625C3.01953 20.1812 3.33828 20.5 3.76328 20.5H19.382C19.807 20.5 20.1258 20.1813 20.1258 19.7563V4.24375C20.0195 3.81875 19.7008 3.5 19.2758 3.5ZM8.01328 17.95H5.56953V9.875H8.11953V17.95H8.01328ZM6.84453 8.8125C5.99453 8.8125 5.35703 8.06875 5.35703 7.325C5.35703 6.475 5.99453 5.8375 6.84453 5.8375C7.69453 5.8375 8.33203 6.475 8.33203 7.325C8.22578 8.06875 7.58828 8.8125 6.84453 8.8125ZM17.4695 17.95H14.9195V14.0187C14.9195 13.0625 14.9195 11.8938 13.6445 11.8938C12.3695 11.8938 12.157 12.9562 12.157 14.0187V18.0562H9.60703V9.875H12.0508V10.9375C12.3695 10.3 13.2195 9.6625 14.3883 9.6625C16.9383 9.6625 17.3633 11.3625 17.3633 13.4875V17.95H17.4695Z" fill="#00FFC6"/>
</svg>
