<svg width="171" height="24" viewBox="0 0 171 24" fill="none" xmlns="http://www.w3.org/2000/svg">
<g clip-path="url(#clip0_2890_19126)">
<path d="M60.4693 1.0521H60.9407V22.8644H60.4693V1.0521ZM73.5392 22.9659H67.2908V1.2921H73.5392C75.0063 1.27546 76.4608 1.5647 77.8096 2.14133C79.1059 2.69591 80.2687 3.52044 81.2204 4.55979C82.134 5.5593 82.8464 6.72513 83.3186 7.99364C84.3044 10.6404 84.3044 13.553 83.3186 16.1998C82.8402 17.4736 82.1287 18.6474 81.2204 19.6613C80.2792 20.7307 79.115 21.5813 77.8096 22.1536C76.4568 22.7133 75.0033 22.9897 73.5392 22.9659ZM68.7975 21.4613H73.5392C74.7774 21.5015 76.0092 21.2684 77.1468 20.7785C78.2844 20.2887 79.2997 19.5542 80.1204 18.6275C80.9016 17.775 81.5077 16.7777 81.9044 15.6921C82.319 14.5404 82.5286 13.3252 82.5237 12.1013C82.5273 10.8926 82.3176 9.69278 81.9044 8.55672C81.5112 7.46397 80.9048 6.45997 80.1204 5.60287C79.2867 4.69674 78.2674 3.98043 77.1318 3.5026C75.9962 3.02477 74.7709 2.79662 73.5392 2.83364H68.7975V21.4613ZM86.831 22.9659V1.2921H88.3284V22.9659H86.831ZM109.902 22.9659H102.055C100.131 22.9815 98.2395 22.4742 96.5826 21.4983C94.9309 20.5396 93.5603 19.1645 92.608 17.5106C91.6252 15.8313 91.1172 13.9171 91.1384 11.9721C91.1254 10.0457 91.6332 8.15141 92.608 6.48903C93.5625 4.83436 94.9324 3.45676 96.5826 2.4921C98.2345 1.50226 100.128 0.987916 102.055 1.00595C103.555 1.00144 105.039 1.31611 106.408 1.92903C107.775 2.54584 108.997 3.44206 109.995 4.55979L108.895 5.59364C107.448 4.03402 105.514 3.01247 103.409 2.69706C101.304 2.38165 99.1538 2.79118 97.3129 3.85826C95.8883 4.68129 94.7008 5.85773 93.8651 7.27364C93.038 8.71026 92.6133 10.3428 92.6358 11.9998C92.6229 13.6634 93.0604 15.2995 93.9021 16.7352C94.731 18.1659 95.9194 19.3559 97.3498 20.1875C98.7706 21.038 100.398 21.4819 102.055 21.4706H108.331V13.6983H101.186V12.1936H109.902V22.9659ZM114.043 22.9659V1.2921H115.541V22.9659H114.043ZM136.68 1.2921V2.82441H128.102V22.9659H126.568V2.82441H117.953V1.2921H136.68ZM138.723 17.4644L136.153 23.0029H134.48L144.648 1.06133L154.362 22.9659H152.726L150.295 17.4275L138.723 17.4644ZM144.629 4.72595L139.425 15.9598H149.593L144.629 4.72595ZM156.386 22.9659V1.2921H157.884V21.4613H170.076V22.9659H156.386ZM19.152 11.9998C19.1759 10.5398 18.6516 9.12378 17.6823 8.03056C17.102 7.34297 16.3749 6.79378 15.5544 6.42322C14.7339 6.05267 13.8408 5.87014 12.9405 5.88903C11.6842 5.88411 10.4572 6.26784 9.42811 6.98749C8.38809 7.69898 7.59896 8.7196 7.17276 9.90441C6.92517 10.5755 6.79691 11.2846 6.79378 11.9998C6.78719 13.4484 7.30971 14.8498 8.26346 15.9413C8.8267 16.6341 9.54067 17.1896 10.3511 17.5654C11.1615 17.9413 12.0471 18.1278 12.9405 18.1106C13.7515 18.1216 14.5566 17.9717 15.3091 17.6696C16.0617 17.3676 16.7467 16.9193 17.3245 16.3509C17.9023 15.7825 18.3613 15.1052 18.675 14.3583C18.9887 13.6114 19.1508 12.8097 19.152 11.9998ZM25.0215 11.9998C25.0539 14.869 24.0009 17.6447 22.0729 19.7721C20.9297 21.045 19.517 22.0476 17.9373 22.707C16.3577 23.3665 14.6507 23.6662 12.9405 23.5844C11.2371 23.6624 9.53761 23.3618 7.9647 22.7041C6.3918 22.0464 4.98477 21.0481 3.84519 19.7813C1.92503 17.6474 0.88193 14.8684 0.924324 11.9998C0.939592 10.579 1.20879 9.17227 1.71924 7.84595C2.20604 6.516 2.93286 5.28644 3.86367 4.21826C5.00043 2.95291 6.40432 1.95539 7.97401 1.29772C9.5437 0.640039 11.24 0.338607 12.9405 0.415179C14.5068 0.338457 16.0722 0.581958 17.5409 1.13076C19.0096 1.67956 20.3506 2.52209 21.4817 3.60673C22.6128 4.69137 23.5102 5.99525 24.1188 7.43847C24.7275 8.88169 25.0347 10.4338 25.0215 11.9998ZM41.0955 15.609C41.0955 19.3013 39.481 21.6983 36.252 22.7998C35.082 23.1942 33.8542 23.3908 32.6194 23.3813C29.8954 23.3818 27.2415 22.5188 25.0399 20.9167L27.4617 16.3659C28.7829 17.7298 30.5659 18.5527 32.4623 18.6736C33.116 18.687 33.7592 18.5072 34.3109 18.1567C34.597 17.9881 34.8323 17.7456 34.992 17.4547C35.1517 17.1638 35.2301 16.8354 35.2187 16.5038C35.2074 16.1723 35.1068 15.8499 34.9275 15.5706C34.7482 15.2913 34.4969 15.0655 34.2 14.9167C33.4237 14.4773 32.59 14.148 31.7228 13.9383C30.3178 13.5229 29.4397 13.2367 29.0792 13.0798C28.5519 12.863 28.0573 12.5741 27.6096 12.2213C27.009 11.6799 26.5408 11.008 26.2411 10.2575C25.9414 9.50692 25.8183 8.69769 25.8811 7.8921C25.835 6.91012 25.9947 5.92934 26.35 5.01255C26.7053 4.09575 27.2483 3.26314 27.9444 2.56801C28.6405 1.87288 29.4742 1.33055 30.3922 0.975733C31.3103 0.620916 32.2924 0.461431 33.2757 0.507487C35.706 0.524675 38.0942 1.14311 40.2266 2.30749L37.962 6.70133C36.926 5.8199 35.6245 5.30978 34.2647 5.2521C33.6862 5.24489 33.1179 5.4052 32.6286 5.71364C32.3799 5.85596 32.1735 6.06173 32.0306 6.30989C31.8877 6.55804 31.8133 6.83968 31.8152 7.12595C31.8425 7.4474 31.9566 7.75544 32.1454 8.01718C32.3343 8.27892 32.5907 8.48454 32.8875 8.6121C33.8156 9.02279 34.7774 9.35324 35.7621 9.59979C37.4112 9.97167 38.9055 10.8419 40.0417 12.0921C40.8106 13.1026 41.1998 14.3505 41.1417 15.6183L41.0955 15.609ZM55.5057 5.77826H48.7026V9.47056H54.9049V14.1875H48.7026V22.7906H43.0365V1.06133H55.5057V5.77826Z" fill="white"/>
</g>
<defs>
<clipPath id="clip0_2890_19126">
<rect width="171" height="24" fill="white"/>
</clipPath>
</defs>
</svg>
