<svg width="24" height="24" viewBox="0 0 24 24" fill="none" xmlns="http://www.w3.org/2000/svg">
<path fill-rule="evenodd" clip-rule="evenodd" d="M20.1 7.33737C20.4829 7.82842 20.7311 8.41085 20.82 9.02713C20.9319 9.94288 20.992 10.8642 21 11.7867V13.0766C20.9924 14.0024 20.9323 14.9271 20.82 15.8462C20.7311 16.4624 20.4829 17.0449 20.1 17.5359C19.6125 17.9946 18.9694 18.2518 18.3 18.2558C15.78 18.4358 12 18.4358 12 18.4358C12 18.4358 7.32 18.4358 5.9 18.2658C5.16881 18.262 4.46173 18.0039 3.9 17.5359C3.5155 17.042 3.26725 16.4559 3.18 15.8362C3.06803 14.9204 3.00794 13.9991 3 13.0766V11.7867C3.00756 10.8609 3.06766 9.93619 3.18 9.01713C3.26893 8.40085 3.51709 7.81843 3.9 7.32737C4.38752 6.8687 5.0306 6.61151 5.7 6.60748C8.22 6.4375 12 6.4375 12 6.4375C12 6.4375 15.78 6.4375 18.3 6.61747C18.9694 6.62151 19.6125 6.8787 20.1 7.33737ZM16 12.4375L10 9.4375V15.4375L16 12.4375Z" fill="#00FFC6"/>
</svg>
