<svg width="143" height="20" viewBox="0 0 143 20" fill="none" xmlns="http://www.w3.org/2000/svg">
<path d="M50.3231 0.876935H50.7154V19.0539H50.3231V0.876935ZM61.2 19.1385H56V1.07694H61.2C62.4209 1.06306 63.6313 1.3041 64.7538 1.78463C65.8326 2.24678 66.8003 2.93388 67.5923 3.80001C68.3526 4.63293 68.9455 5.60446 69.3384 6.66155C70.1589 8.86722 70.1589 11.2943 69.3384 13.5C68.9404 14.5615 68.3482 15.5397 67.5923 16.3846C66.809 17.2757 65.8402 17.9846 64.7538 18.4615C63.628 18.9279 62.4184 19.1583 61.2 19.1385ZM57.2538 17.8846H61.2C62.2304 17.9181 63.2555 17.7238 64.2022 17.3156C65.1489 16.9074 65.9939 16.2954 66.6769 15.5231C67.327 14.8127 67.8314 13.9816 68.1615 13.0769C68.5066 12.1172 68.6811 11.1045 68.6769 10.0846C68.6799 9.07739 68.5054 8.0775 68.1615 7.13078C67.8343 6.22016 67.3297 5.38349 66.6769 4.66924C65.983 3.91413 65.1348 3.31721 64.1897 2.91902C63.2447 2.52083 62.225 2.3307 61.2 2.36155H57.2538V17.8846ZM72.2615 19.1385V1.07694H73.5077V19.1385H72.2615ZM91.4615 19.1385H84.9308C83.33 19.1515 81.7558 18.7287 80.3769 17.9154C79.0023 17.1165 77.8617 15.9706 77.0692 14.5923C76.2513 13.1929 75.8286 11.5977 75.8461 9.97694C75.8354 8.37156 76.2579 6.79302 77.0692 5.4077C77.8635 4.02882 79.0036 2.88081 80.3769 2.07694C81.7516 1.25207 83.3276 0.823446 84.9308 0.838474C86.1794 0.834714 87.4145 1.09694 88.5538 1.6077C89.6911 2.12171 90.7078 2.86857 91.5384 3.80001L90.6231 4.66155C89.4195 3.36186 87.8093 2.51057 86.0575 2.24773C84.3057 1.98489 82.5166 2.32616 80.9846 3.2154C79.7991 3.90126 78.8108 4.88162 78.1154 6.06155C77.427 7.25874 77.0736 8.61916 77.0923 10C77.0816 11.3863 77.4457 12.7498 78.1461 13.9462C78.8359 15.1385 79.8249 16.1301 81.0154 16.8231C82.1977 17.5318 83.5523 17.9017 84.9308 17.8923H90.1538V11.4154H84.2077V10.1616H91.4615V19.1385ZM94.9077 19.1385V1.07694H96.1538V19.1385H94.9077ZM113.746 1.07694V2.35386H106.608V19.1385H105.331V2.35386H98.1615V1.07694H113.746ZM115.446 14.5539L113.308 19.1692H111.915L120.377 0.884627L128.462 19.1385H127.1L125.077 14.5231L115.446 14.5539ZM120.362 3.93847L116.031 13.3H124.492L120.362 3.93847ZM130.146 19.1385V1.07694H131.392V17.8846H141.538V19.1385H130.146ZM15.9385 10C15.9584 8.78336 15.522 7.60333 14.7154 6.69232C14.2324 6.11933 13.6273 5.66167 12.9445 5.35287C12.2617 5.04407 11.5185 4.89197 10.7692 4.9077C9.72371 4.90361 8.70258 5.22339 7.84615 5.82309C6.98064 6.416 6.32392 7.26651 5.96923 8.25386C5.76318 8.81309 5.65645 9.40403 5.65385 10C5.64836 11.2072 6.08321 12.375 6.87692 13.2846C7.34565 13.8619 7.93983 14.3248 8.61428 14.638C9.28874 14.9513 10.0257 15.1066 10.7692 15.0923C11.4441 15.1015 12.1141 14.9766 12.7404 14.7249C13.3667 14.4732 13.9367 14.0996 14.4176 13.626C14.8984 13.1523 15.2804 12.5879 15.5415 11.9655C15.8026 11.343 15.9375 10.675 15.9385 10ZM20.8231 10C20.8501 12.391 19.9738 14.7041 18.3692 16.4769C17.4179 17.5377 16.2422 18.3732 14.9276 18.9227C13.613 19.4723 12.1925 19.722 10.7692 19.6539C9.35163 19.7189 7.93728 19.4683 6.6283 18.9203C5.31931 18.3722 4.14837 17.5403 3.2 16.4846C1.60203 14.7063 0.73395 12.3905 0.769231 10C0.781937 8.81599 1.00597 7.64374 1.43077 6.53847C1.83588 5.43018 2.44075 4.40555 3.21538 3.5154C4.1614 2.46094 5.32973 1.62968 6.63604 1.08161C7.94235 0.533549 9.35404 0.282355 10.7692 0.346166C12.0727 0.282231 13.3754 0.485148 14.5977 0.942481C15.8199 1.39981 16.9359 2.10193 17.8772 3.00579C18.8185 3.90966 19.5654 4.99623 20.0719 6.19891C20.5785 7.40159 20.8341 8.69505 20.8231 10ZM34.2 13.0077C34.2 16.0846 32.8564 18.0821 30.1692 19C29.1955 19.3287 28.1738 19.4925 27.1462 19.4846C24.8792 19.485 22.6706 18.7658 20.8385 17.4308L22.8538 13.6385C23.9534 14.775 25.4372 15.4607 27.0154 15.5616C27.5594 15.5727 28.0947 15.4228 28.5538 15.1308C28.7919 14.9902 28.9877 14.7882 29.1206 14.5458C29.2536 14.3034 29.3188 14.0297 29.3093 13.7534C29.2999 13.4771 29.2162 13.2084 29.067 12.9757C28.9178 12.743 28.7086 12.5547 28.4615 12.4308C27.8155 12.0646 27.1217 11.7902 26.4 11.6154C25.2308 11.2692 24.5 11.0308 24.2 10.9C23.7611 10.7194 23.3495 10.4786 22.9769 10.1846C22.4771 9.73344 22.0875 9.17355 21.8381 8.54809C21.5887 7.92262 21.4862 7.24826 21.5385 6.57694C21.5001 5.75862 21.633 4.9413 21.9287 4.1773C22.2243 3.41331 22.6763 2.71947 23.2556 2.14019C23.8348 1.56092 24.5287 1.10897 25.2927 0.813294C26.0567 0.517613 26.874 0.384709 27.6923 0.423089C29.7148 0.437412 31.7023 0.952775 33.4769 1.92309L31.5923 5.58463C30.7301 4.8501 29.647 4.425 28.5154 4.37694C28.0339 4.37093 27.561 4.50451 27.1538 4.76155C26.9468 4.88015 26.7751 5.05162 26.6561 5.25842C26.5372 5.46522 26.4753 5.69991 26.4769 5.93847C26.4996 6.20635 26.5946 6.46305 26.7517 6.68117C26.9089 6.89928 27.1223 7.07064 27.3692 7.17694C28.1417 7.51918 28.942 7.79455 29.7615 8.00001C31.1339 8.30991 32.3775 9.03511 33.3231 10.0769C33.9629 10.919 34.2869 11.9589 34.2385 13.0154L34.2 13.0077ZM46.1923 4.8154H40.5308V7.89232H45.6923V11.8231H40.5308V18.9923H35.8154V0.884627H46.1923V4.8154Z" fill="#070859"/>
</svg>
