<svg width="20" height="20" viewBox="0 0 20 20" fill="none" xmlns="http://www.w3.org/2000/svg">
<path d="M9.99978 2.50014C10.1098 2.50014 10.2189 2.50014 10.3273 2.50014C9.25673 3.49489 8.5686 4.83334 8.38252 6.28282C8.19644 7.7323 8.52416 9.20116 9.30872 10.4341C10.0933 11.667 11.2851 12.586 12.6769 13.0314C14.0688 13.4767 15.5727 13.4203 16.9273 12.8718C16.4062 14.1255 15.5546 15.2143 14.4633 16.022C13.3719 16.8297 12.0818 17.326 10.7305 17.458C9.37925 17.5899 8.0175 17.3526 6.79052 16.7713C5.56354 16.19 4.51737 15.2866 3.7636 14.1573C3.00983 13.0281 2.57674 11.7154 2.51051 10.3593C2.44429 9.00319 2.74743 7.65455 3.38759 6.45723C4.02774 5.25991 4.98091 4.25882 6.14541 3.56075C7.30991 2.86267 8.64207 2.4938 9.99978 2.49347V2.50014Z" stroke="#2AC6C1" stroke-width="1.2" stroke-linecap="round" stroke-linejoin="round"/>
</svg>
